<svg width="20" height="27" viewBox="0 0 20 27" fill="none" xmlns="http://www.w3.org/2000/svg">
<path d="M0.682467 3.55L8.75939 13.2423C8.91099 13.4241 9.1007 13.5704 9.31508 13.6707C9.52947 13.7711 9.76329 13.8231 10 13.8231C10.2367 13.8231 10.4705 13.7711 10.6849 13.6707C10.8993 13.5704 11.089 13.4241 11.2406 13.2423L19.3175 3.55C19.514 3.31415 19.6392 3.02721 19.6784 2.72279C19.7177 2.41836 19.6694 2.10906 19.5392 1.83108C19.4091 1.5531 19.2024 1.31797 18.9434 1.15321C18.6844 0.988449 18.3839 0.900879 18.0769 0.900764H1.92309C1.61905 0.90337 1.32191 0.99173 1.06585 1.15568C0.809795 1.31964 0.605206 1.55253 0.475613 1.82758C0.34602 2.10263 0.296688 2.40866 0.333281 2.71051C0.369873 3.01235 0.490904 3.29773 0.682467 3.53384V3.55Z" fill="#181818"/>
<path d="M11.8739 25.8423L19.1431 16.9577C19.3556 16.713 19.517 16.4281 19.6175 16.12C19.718 15.8118 19.7557 15.4867 19.7282 15.1637C19.7008 14.8407 19.6089 14.5265 19.4579 14.2397C19.3069 13.9529 19.0999 13.6993 18.8491 13.494C18.5983 13.2886 18.3089 13.1356 17.998 13.0441C17.687 12.9526 17.3609 12.9244 17.0389 12.9612C16.7168 12.998 16.4054 13.099 16.1231 13.2583C15.8409 13.4175 15.5934 13.6318 15.3954 13.8885L10.6235 19.7038C10.5484 19.7969 10.4535 19.872 10.3456 19.9236C10.2377 19.9751 10.1196 20.0019 10 20.0019C9.88041 20.0019 9.76234 19.9751 9.65445 19.9236C9.54655 19.872 9.45156 19.7969 9.37646 19.7038L4.60462 13.8885C4.19116 13.4125 3.60849 13.1165 2.9803 13.0632C2.35211 13.0098 1.72788 13.2035 1.24013 13.6029C0.752377 14.0024 0.439512 14.5762 0.367966 15.2026C0.296419 15.8289 0.471821 16.4585 0.85693 16.9577L8.12616 25.8423C8.35311 26.1201 8.63897 26.3439 8.96305 26.4976C9.28713 26.6513 9.64132 26.731 10 26.731C10.3587 26.731 10.7129 26.6513 11.037 26.4976C11.361 26.3439 11.6469 26.1201 11.8739 25.8423Z" fill="#181818"/>
</svg>
