<svg width="20" height="27" viewBox="0 0 20 27" fill="none" xmlns="http://www.w3.org/2000/svg">
<path d="M0.682467 23.45L8.75939 13.7577C8.91099 13.5759 9.1007 13.4296 9.31508 13.3293C9.52947 13.2289 9.76329 13.1769 10 13.1769C10.2367 13.1769 10.4705 13.2289 10.6849 13.3293C10.8993 13.4296 11.089 13.5759 11.2406 13.7577L19.3175 23.45C19.514 23.6859 19.6392 23.9728 19.6784 24.2772C19.7177 24.5816 19.6694 24.8909 19.5392 25.1689C19.4091 25.4469 19.2024 25.682 18.9434 25.8468C18.6844 26.0116 18.3839 26.0991 18.0769 26.0992H1.92309C1.61905 26.0966 1.32191 26.0083 1.06585 25.8443C0.809795 25.6804 0.605206 25.4475 0.475613 25.1724C0.34602 24.8974 0.296688 24.5913 0.333281 24.2895C0.369873 23.9877 0.490904 23.7023 0.682467 23.4662V23.45Z" fill="#181818"/>
<path d="M11.8739 1.1577L19.1431 10.0423C19.3556 10.287 19.517 10.5719 19.6175 10.88C19.718 11.1882 19.7557 11.5133 19.7282 11.8363C19.7008 12.1593 19.6089 12.4735 19.4579 12.7603C19.3069 13.0471 19.0999 13.3007 18.8491 13.506C18.5983 13.7114 18.3089 13.8644 17.998 13.9559C17.687 14.0474 17.3609 14.0756 17.0389 14.0388C16.7168 14.002 16.4054 13.901 16.1231 13.7417C15.8409 13.5825 15.5934 13.3682 15.3954 13.1115L10.6235 7.29616C10.5484 7.20309 10.4535 7.12801 10.3456 7.07644C10.2377 7.02486 10.1196 6.99809 10 6.99809C9.88041 6.99809 9.76234 7.02486 9.65445 7.07644C9.54655 7.12801 9.45156 7.20309 9.37646 7.29616L4.60462 13.1115C4.19116 13.5875 3.60849 13.8835 2.9803 13.9368C2.35211 13.9902 1.72788 13.7965 1.24013 13.3971C0.752377 12.9976 0.439512 12.4238 0.367966 11.7974C0.296419 11.1711 0.471821 10.5415 0.85693 10.0423L8.12616 1.1577C8.35311 0.879947 8.63897 0.656124 8.96305 0.502421C9.28713 0.348719 9.64132 0.268981 10 0.268981C10.3587 0.268981 10.7129 0.348719 11.037 0.502421C11.361 0.656124 11.6469 0.879947 11.8739 1.1577Z" fill="#181818"/>
</svg>
