<svg width="24" height="24" viewBox="0 0 24 24" fill="none" xmlns="http://www.w3.org/2000/svg">
<path d="M20.25 7.5H18C17.7244 7.47467 17.4629 7.36641 17.25 7.1895L15.3105 5.25C14.8167 4.79069 14.174 4.52446 13.5 4.5H10.5C9.82601 4.52446 9.18335 4.79069 8.6895 5.25L6.75 7.1895C6.53712 7.36641 6.27563 7.47467 6 7.5H3.75C2.95435 7.5 2.19129 7.81607 1.62868 8.37868C1.06607 8.94129 0.75 9.70435 0.75 10.5V18C0.75 18.7956 1.06607 19.5587 1.62868 20.1213C2.19129 20.6839 2.95435 21 3.75 21H20.25C21.0456 21 21.8087 20.6839 22.3713 20.1213C22.9339 19.5587 23.25 18.7956 23.25 18V10.5C23.25 9.70435 22.9339 8.94129 22.3713 8.37868C21.8087 7.81607 21.0456 7.5 20.25 7.5ZM15.375 14.25C15.375 14.9175 15.1771 15.57 14.8062 16.125C14.4354 16.6801 13.9083 17.1126 13.2916 17.3681C12.6749 17.6235 11.9963 17.6904 11.3416 17.5602C10.6869 17.4299 10.0855 17.1085 9.61351 16.6365C9.14151 16.1645 8.82007 15.5631 8.68985 14.9084C8.55962 14.2537 8.62646 13.5751 8.88191 12.9584C9.13735 12.3417 9.56993 11.8146 10.125 11.4438C10.68 11.0729 11.3325 10.875 12 10.875C12.8951 10.875 13.7535 11.2306 14.3865 11.8635C15.0194 12.4964 15.375 13.3549 15.375 14.25Z" fill="black"/>
</svg>
