<svg width="32" height="32" viewBox="0 0 32 32" fill="none" xmlns="http://www.w3.org/2000/svg">
<path d="M11.3333 1.33333H7C5.89543 1.33333 5 2.22876 5 3.33333V28.6667C5 29.7712 5.89543 30.6667 7 30.6667H11.3333C12.4379 30.6667 13.3333 29.7712 13.3333 28.6667V3.33333C13.3333 2.22876 12.4379 1.33333 11.3333 1.33333Z" fill="#181818"/>
<path d="M24.9998 1.33333H20.6665C19.5619 1.33333 18.6665 2.22876 18.6665 3.33333V28.6667C18.6665 29.7712 19.5619 30.6667 20.6665 30.6667H24.9998C26.1044 30.6667 26.9998 29.7712 26.9998 28.6667V3.33333C26.9998 2.22876 26.1044 1.33333 24.9998 1.33333Z" fill="#181818"/>
</svg>
