<svg width="24" height="24" viewBox="0 0 24 24" fill="none" xmlns="http://www.w3.org/2000/svg">
<g clip-path="url(#clip0)">
<path d="M12 24C14.3734 24 16.6934 23.2962 18.6668 21.9776C20.6402 20.659 22.1783 18.7849 23.0865 16.5922C23.9948 14.3995 24.2324 11.9867 23.7694 9.65891C23.3064 7.33114 22.1635 5.19294 20.4853 3.51471C18.807 1.83649 16.6688 0.693597 14.3411 0.230574C12.0133 -0.232448 9.60051 0.00519174 7.4078 0.913443C5.21508 1.82169 3.34094 3.35976 2.02236 5.33315C0.703787 7.30654 0 9.62662 0 12C0.00344108 15.1815 1.26883 18.2318 3.51852 20.4815C5.76821 22.7312 8.81845 23.9965 12 24ZM7.5 8.99999C7.5 8.60217 7.65803 8.22064 7.93934 7.93933C8.22064 7.65803 8.60217 7.49999 9 7.49999H15C15.3978 7.49999 15.7793 7.65803 16.0607 7.93933C16.342 8.22064 16.5 8.60217 16.5 8.99999V15C16.5 15.3978 16.342 15.7793 16.0607 16.0606C15.7793 16.342 15.3978 16.5 15 16.5H9C8.60217 16.5 8.22064 16.342 7.93934 16.0606C7.65803 15.7793 7.5 15.3978 7.5 15V8.99999Z" fill="black"/>
</g>
<defs>
<clipPath id="clip0">
<rect width="24" height="24" fill="white"/>
</clipPath>
</defs>
</svg>
