<svg width="27" height="20" viewBox="0 0 27 20" fill="none" xmlns="http://www.w3.org/2000/svg">
<path d="M3.55 19.3175L13.2423 11.2406C13.4241 11.089 13.5704 10.8993 13.6707 10.6849C13.7711 10.4705 13.8231 10.2367 13.8231 9.99999C13.8231 9.76328 13.7711 9.52946 13.6707 9.31507C13.5704 9.10069 13.4241 8.91098 13.2423 8.75938L3.55 0.682459C3.31415 0.486013 3.02721 0.36083 2.72279 0.321567C2.41836 0.282303 2.10906 0.330585 1.83108 0.460759C1.5531 0.590933 1.31797 0.797609 1.15321 1.05659C0.988449 1.31557 0.900879 1.61613 0.900764 1.92307V18.0769C0.90337 18.381 0.99173 18.6781 1.15568 18.9341C1.31964 19.1902 1.55253 19.3948 1.82758 19.5244C2.10263 19.654 2.40866 19.7033 2.71051 19.6667C3.01235 19.6301 3.29773 19.5091 3.53384 19.3175H3.55Z" fill="#181818"/>
<path d="M25.8423 8.12615L16.9577 0.856921C16.713 0.644352 16.4281 0.483035 16.12 0.382523C15.8118 0.282011 15.4867 0.244345 15.1637 0.271755C14.8407 0.299166 14.5265 0.391096 14.2397 0.542102C13.9529 0.693109 13.6993 0.900123 13.494 1.15089C13.2886 1.40165 13.1356 1.69108 13.0441 2.00202C12.9526 2.31296 12.9244 2.6391 12.9612 2.96114C12.998 3.28317 13.099 3.59456 13.2583 3.87685C13.4175 4.15915 13.6318 4.40662 13.8885 4.60461L19.7038 9.37645C19.7969 9.45156 19.872 9.54654 19.9236 9.65444C19.9751 9.76233 20.0019 9.88041 20.0019 9.99999C20.0019 10.1196 19.9751 10.2377 19.9236 10.3456C19.872 10.4534 19.7969 10.5484 19.7038 10.6235L13.8885 15.3954C13.4125 15.8088 13.1165 16.3915 13.0632 17.0197C13.0098 17.6479 13.2035 18.2721 13.6029 18.7599C14.0024 19.2476 14.5762 19.5605 15.2026 19.632C15.8289 19.7036 16.4585 19.5282 16.9577 19.1431L25.8423 11.8738C26.1201 11.6469 26.3439 11.361 26.4976 11.037C26.6513 10.7129 26.731 10.3587 26.731 9.99999C26.731 9.64131 26.6513 9.28712 26.4976 8.96304C26.3439 8.63896 26.1201 8.3531 25.8423 8.12615Z" fill="#181818"/>
</svg>
