<svg width="27" height="20" viewBox="0 0 27 20" fill="none" xmlns="http://www.w3.org/2000/svg">
<path d="M23.45 19.3175L13.7577 11.2406C13.5759 11.089 13.4296 10.8993 13.3293 10.6849C13.2289 10.4705 13.1769 10.2367 13.1769 9.99999C13.1769 9.76328 13.2289 9.52946 13.3293 9.31507C13.4296 9.10069 13.5759 8.91098 13.7577 8.75938L23.45 0.682459C23.6859 0.486013 23.9728 0.36083 24.2772 0.321567C24.5816 0.282303 24.8909 0.330585 25.1689 0.460759C25.4469 0.590933 25.682 0.797609 25.8468 1.05659C26.0116 1.31557 26.0991 1.61613 26.0992 1.92307V18.0769C26.0966 18.381 26.0083 18.6781 25.8443 18.9341C25.6804 19.1902 25.4475 19.3948 25.1724 19.5244C24.8974 19.654 24.5913 19.7033 24.2895 19.6667C23.9877 19.6301 23.7023 19.5091 23.4662 19.3175H23.45Z" fill="#181818"/>
<path d="M1.1577 8.12615L10.0423 0.856921C10.287 0.644352 10.5719 0.483035 10.88 0.382523C11.1882 0.282011 11.5133 0.244345 11.8363 0.271755C12.1593 0.299166 12.4735 0.391096 12.7603 0.542102C13.0471 0.693109 13.3007 0.900123 13.506 1.15089C13.7114 1.40165 13.8644 1.69108 13.9559 2.00202C14.0474 2.31296 14.0756 2.6391 14.0388 2.96114C14.002 3.28317 13.901 3.59456 13.7417 3.87685C13.5825 4.15915 13.3682 4.40662 13.1115 4.60461L7.29616 9.37645C7.20309 9.45156 7.12801 9.54654 7.07644 9.65444C7.02486 9.76233 6.99809 9.88041 6.99809 9.99999C6.99809 10.1196 7.02486 10.2377 7.07644 10.3456C7.12801 10.4534 7.20309 10.5484 7.29616 10.6235L13.1115 15.3954C13.5875 15.8088 13.8835 16.3915 13.9368 17.0197C13.9902 17.6479 13.7965 18.2721 13.3971 18.7599C12.9976 19.2476 12.4238 19.5605 11.7974 19.632C11.1711 19.7036 10.5415 19.5282 10.0423 19.1431L1.1577 11.8738C0.879947 11.6469 0.656124 11.361 0.502421 11.037C0.348719 10.7129 0.268981 10.3587 0.268981 9.99999C0.268981 9.64131 0.348719 9.28712 0.502421 8.96304C0.656124 8.63896 0.879947 8.3531 1.1577 8.12615Z" fill="#181818"/>
</svg>
